<mxfile host="app.diagrams.net" modified="2022-05-11T20:01:38.993Z" agent="5.0 (Macintosh; Intel Mac OS X 10_15_7) AppleWebKit/537.36 (KHTML, like Gecko) Chrome/101.0.4951.54 Safari/537.36" etag="tIZGWyiAiwFk83gfg90p" version="18.0.2" type="github">
  <diagram id="gBy3llVhMxXYmEbgjKkH" name="Page-1">
    <mxGraphModel dx="2104" dy="600" grid="1" gridSize="10" guides="1" tooltips="1" connect="1" arrows="1" fold="1" page="1" pageScale="1" pageWidth="850" pageHeight="1100" math="0" shadow="0">
      <root>
        <mxCell id="0" />
        <mxCell id="1" parent="0" />
        <mxCell id="ma4kMYxB2yZlrIE0OlbE-1" value="Customer&lt;span style=&quot;color: rgba(0, 0, 0, 0); font-family: monospace; font-size: 0px; text-align: start;&quot;&gt;%3CmxGraphModel%3E%3Croot%3E%3CmxCell%20id%3D%220%22%2F%3E%3CmxCell%20id%3D%221%22%20parent%3D%220%22%2F%3E%3CmxCell%20id%3D%222%22%20value%3D%22Restaurant&#39;s%20User%20Interface%20(Mobile%20or%20Browser)%22%20style%3D%22rounded%3D0%3BwhiteSpace%3Dwrap%3Bhtml%3D1%3B%22%20vertex%3D%221%22%20parent%3D%221%22%3E%3CmxGeometry%20x%3D%22590%22%20y%3D%2270%22%20width%3D%22120%22%20height%3D%2250%22%20as%3D%22geometry%22%2F%3E%3C%2FmxCell%3E%3C%2Froot%3E%3C%2FmxGraphModel%3E&lt;/span&gt;" style="rounded=0;whiteSpace=wrap;html=1;" vertex="1" parent="1">
          <mxGeometry x="110" y="70" width="120" height="30" as="geometry" />
        </mxCell>
        <mxCell id="ma4kMYxB2yZlrIE0OlbE-2" value="Customer UI (Mobile App)" style="rounded=0;whiteSpace=wrap;html=1;" vertex="1" parent="1">
          <mxGeometry x="400" y="70" width="150" height="30" as="geometry" />
        </mxCell>
        <mxCell id="ma4kMYxB2yZlrIE0OlbE-3" value="Backend" style="rounded=0;whiteSpace=wrap;html=1;" vertex="1" parent="1">
          <mxGeometry x="730" y="70" width="120" height="30" as="geometry" />
        </mxCell>
        <mxCell id="ma4kMYxB2yZlrIE0OlbE-17" value="Customer Opens Mobile App" style="shape=note;whiteSpace=wrap;html=1;backgroundOutline=1;darkOpacity=0.05;size=8;" vertex="1" parent="1">
          <mxGeometry x="-10" y="185" width="120" height="50" as="geometry" />
        </mxCell>
        <mxCell id="ma4kMYxB2yZlrIE0OlbE-18" value="" style="endArrow=none;dashed=1;html=1;rounded=0;entryX=0.5;entryY=1;entryDx=0;entryDy=0;startArrow=none;" edge="1" parent="1" source="ma4kMYxB2yZlrIE0OlbE-78">
          <mxGeometry width="50" height="50" relative="1" as="geometry">
            <mxPoint x="170" y="780" as="sourcePoint" />
            <mxPoint x="170" y="100" as="targetPoint" />
          </mxGeometry>
        </mxCell>
        <mxCell id="ma4kMYxB2yZlrIE0OlbE-19" value="" style="rounded=0;whiteSpace=wrap;html=1;" vertex="1" parent="1">
          <mxGeometry x="160" y="160" width="20" height="100" as="geometry" />
        </mxCell>
        <mxCell id="ma4kMYxB2yZlrIE0OlbE-24" value="" style="endArrow=none;dashed=1;html=1;rounded=0;entryX=0.5;entryY=1;entryDx=0;entryDy=0;startArrow=none;" edge="1" parent="1" source="ma4kMYxB2yZlrIE0OlbE-20" target="ma4kMYxB2yZlrIE0OlbE-78">
          <mxGeometry width="50" height="50" relative="1" as="geometry">
            <mxPoint x="170" y="1220.0000000000002" as="sourcePoint" />
            <mxPoint x="170" y="825" as="targetPoint" />
          </mxGeometry>
        </mxCell>
        <mxCell id="ma4kMYxB2yZlrIE0OlbE-25" value="" style="endArrow=none;dashed=1;html=1;rounded=0;entryX=0.5;entryY=1;entryDx=0;entryDy=0;startArrow=none;" edge="1" parent="1" target="ma4kMYxB2yZlrIE0OlbE-20" source="ma4kMYxB2yZlrIE0OlbE-127">
          <mxGeometry width="50" height="50" relative="1" as="geometry">
            <mxPoint x="170" y="1780" as="sourcePoint" />
            <mxPoint x="430" y="1240" as="targetPoint" />
          </mxGeometry>
        </mxCell>
        <mxCell id="ma4kMYxB2yZlrIE0OlbE-34" value="" style="html=1;verticalAlign=bottom;endArrow=block;rounded=0;entryX=0;entryY=0.25;entryDx=0;entryDy=0;exitX=1;exitY=0.25;exitDx=0;exitDy=0;" edge="1" parent="1" source="ma4kMYxB2yZlrIE0OlbE-19" target="ma4kMYxB2yZlrIE0OlbE-27">
          <mxGeometry width="80" relative="1" as="geometry">
            <mxPoint x="290" y="220" as="sourcePoint" />
            <mxPoint x="370" y="220" as="targetPoint" />
          </mxGeometry>
        </mxCell>
        <mxCell id="ma4kMYxB2yZlrIE0OlbE-42" value="getData()" style="html=1;verticalAlign=bottom;endArrow=block;rounded=0;entryX=0;entryY=0.25;entryDx=0;entryDy=0;exitX=1;exitY=0.25;exitDx=0;exitDy=0;" edge="1" parent="1" source="ma4kMYxB2yZlrIE0OlbE-27" target="ma4kMYxB2yZlrIE0OlbE-37">
          <mxGeometry width="80" relative="1" as="geometry">
            <mxPoint x="460" y="150" as="sourcePoint" />
            <mxPoint x="540" y="150" as="targetPoint" />
          </mxGeometry>
        </mxCell>
        <mxCell id="ma4kMYxB2yZlrIE0OlbE-43" value="getDataQuery()" style="html=1;verticalAlign=bottom;endArrow=block;rounded=0;entryX=0;entryY=0.5;entryDx=0;entryDy=0;exitX=1;exitY=0.25;exitDx=0;exitDy=0;" edge="1" parent="1" source="ma4kMYxB2yZlrIE0OlbE-37" target="ma4kMYxB2yZlrIE0OlbE-5">
          <mxGeometry width="80" relative="1" as="geometry">
            <mxPoint x="910" y="230" as="sourcePoint" />
            <mxPoint x="990" y="230" as="targetPoint" />
          </mxGeometry>
        </mxCell>
        <mxCell id="ma4kMYxB2yZlrIE0OlbE-44" value="[responseData]:" style="html=1;verticalAlign=bottom;endArrow=open;dashed=1;endSize=8;rounded=0;entryX=1;entryY=0.5;entryDx=0;entryDy=0;exitX=0;exitY=0;exitDx=0;exitDy=0;" edge="1" parent="1" source="ma4kMYxB2yZlrIE0OlbE-7" target="ma4kMYxB2yZlrIE0OlbE-37">
          <mxGeometry relative="1" as="geometry">
            <mxPoint x="1290" y="220" as="sourcePoint" />
            <mxPoint x="860" y="230" as="targetPoint" />
          </mxGeometry>
        </mxCell>
        <mxCell id="ma4kMYxB2yZlrIE0OlbE-45" value="[responseData]:" style="html=1;verticalAlign=bottom;endArrow=open;dashed=1;endSize=8;rounded=0;exitX=0;exitY=0.5;exitDx=0;exitDy=0;entryX=1;entryY=0.5;entryDx=0;entryDy=0;" edge="1" parent="1" source="ma4kMYxB2yZlrIE0OlbE-37" target="ma4kMYxB2yZlrIE0OlbE-27">
          <mxGeometry relative="1" as="geometry">
            <mxPoint x="680" y="210" as="sourcePoint" />
            <mxPoint x="600" y="210" as="targetPoint" />
          </mxGeometry>
        </mxCell>
        <mxCell id="ma4kMYxB2yZlrIE0OlbE-46" value="[dataDisplayedToUser]:" style="html=1;verticalAlign=bottom;endArrow=open;dashed=1;endSize=8;rounded=0;exitX=0;exitY=0.5;exitDx=0;exitDy=0;entryX=1;entryY=0.5;entryDx=0;entryDy=0;" edge="1" parent="1" source="ma4kMYxB2yZlrIE0OlbE-27" target="ma4kMYxB2yZlrIE0OlbE-19">
          <mxGeometry relative="1" as="geometry">
            <mxPoint x="430" y="210" as="sourcePoint" />
            <mxPoint x="350" y="210" as="targetPoint" />
          </mxGeometry>
        </mxCell>
        <mxCell id="ma4kMYxB2yZlrIE0OlbE-26" value="" style="endArrow=none;dashed=1;html=1;rounded=0;entryX=0.5;entryY=1;entryDx=0;entryDy=0;startArrow=none;" edge="1" parent="1" source="ma4kMYxB2yZlrIE0OlbE-28">
          <mxGeometry width="50" height="50" relative="1" as="geometry">
            <mxPoint x="470" y="1072.7272338867188" as="sourcePoint" />
            <mxPoint x="469.99999999999955" y="100" as="targetPoint" />
          </mxGeometry>
        </mxCell>
        <mxCell id="ma4kMYxB2yZlrIE0OlbE-27" value="" style="rounded=0;whiteSpace=wrap;html=1;" vertex="1" parent="1">
          <mxGeometry x="460" y="160" width="20" height="100" as="geometry" />
        </mxCell>
        <mxCell id="ma4kMYxB2yZlrIE0OlbE-47" value="" style="endArrow=none;dashed=1;html=1;rounded=0;entryX=0.5;entryY=1;entryDx=0;entryDy=0;startArrow=none;" edge="1" parent="1" target="ma4kMYxB2yZlrIE0OlbE-28">
          <mxGeometry width="50" height="50" relative="1" as="geometry">
            <mxPoint x="470" y="1590" as="sourcePoint" />
            <mxPoint x="469.99999999999955" y="100" as="targetPoint" />
            <Array as="points">
              <mxPoint x="470" y="1250" />
            </Array>
          </mxGeometry>
        </mxCell>
        <mxCell id="ma4kMYxB2yZlrIE0OlbE-52" value="Payment Processor Service" style="rounded=0;whiteSpace=wrap;html=1;" vertex="1" parent="1">
          <mxGeometry x="550" y="350" width="150" height="30" as="geometry" />
        </mxCell>
        <mxCell id="ma4kMYxB2yZlrIE0OlbE-54" value="" style="endArrow=none;dashed=1;html=1;rounded=0;entryX=0.5;entryY=1;entryDx=0;entryDy=0;startArrow=none;" edge="1" parent="1" source="ma4kMYxB2yZlrIE0OlbE-55" target="ma4kMYxB2yZlrIE0OlbE-52">
          <mxGeometry width="50" height="50" relative="1" as="geometry">
            <mxPoint x="625" y="2119.0908203125" as="sourcePoint" />
            <mxPoint x="480" y="540" as="targetPoint" />
          </mxGeometry>
        </mxCell>
        <mxCell id="ma4kMYxB2yZlrIE0OlbE-28" value="" style="rounded=0;whiteSpace=wrap;html=1;" vertex="1" parent="1">
          <mxGeometry x="460" y="410" width="20" height="170" as="geometry" />
        </mxCell>
        <mxCell id="ma4kMYxB2yZlrIE0OlbE-49" value="Customer Makes an Order" style="shape=note;whiteSpace=wrap;html=1;backgroundOutline=1;darkOpacity=0.05;size=8;" vertex="1" parent="1">
          <mxGeometry x="-10" y="435" width="120" height="50" as="geometry" />
        </mxCell>
        <mxCell id="ma4kMYxB2yZlrIE0OlbE-50" value="[clicksCheckout]:" style="html=1;verticalAlign=bottom;endArrow=block;rounded=0;exitX=0.982;exitY=0.147;exitDx=0;exitDy=0;exitPerimeter=0;" edge="1" parent="1">
          <mxGeometry width="80" relative="1" as="geometry">
            <mxPoint x="179.63999999999987" y="434.99" as="sourcePoint" />
            <mxPoint x="460" y="435" as="targetPoint" />
          </mxGeometry>
        </mxCell>
        <mxCell id="ma4kMYxB2yZlrIE0OlbE-55" value="" style="rounded=0;whiteSpace=wrap;html=1;" vertex="1" parent="1">
          <mxGeometry x="615" y="410" width="20" height="100" as="geometry" />
        </mxCell>
        <mxCell id="ma4kMYxB2yZlrIE0OlbE-57" value="[processPayment]:" style="html=1;verticalAlign=bottom;endArrow=block;rounded=0;exitX=0.991;exitY=0.147;exitDx=0;exitDy=0;entryX=0;entryY=0.25;entryDx=0;entryDy=0;exitPerimeter=0;" edge="1" parent="1" source="ma4kMYxB2yZlrIE0OlbE-28" target="ma4kMYxB2yZlrIE0OlbE-55">
          <mxGeometry width="80" relative="1" as="geometry">
            <mxPoint x="530" y="440" as="sourcePoint" />
            <mxPoint x="610" y="440" as="targetPoint" />
          </mxGeometry>
        </mxCell>
        <mxCell id="ma4kMYxB2yZlrIE0OlbE-58" value="" style="html=1;points=[];perimeter=orthogonalPerimeter;" vertex="1" parent="1">
          <mxGeometry x="630" y="445" width="10" height="40" as="geometry" />
        </mxCell>
        <mxCell id="ma4kMYxB2yZlrIE0OlbE-59" value="verifyCard()" style="edgeStyle=orthogonalEdgeStyle;html=1;align=left;spacingLeft=2;endArrow=block;rounded=0;entryX=1;entryY=0;" edge="1" target="ma4kMYxB2yZlrIE0OlbE-58" parent="1">
          <mxGeometry relative="1" as="geometry">
            <mxPoint x="635" y="425" as="sourcePoint" />
            <Array as="points">
              <mxPoint x="665" y="425" />
            </Array>
          </mxGeometry>
        </mxCell>
        <mxCell id="ma4kMYxB2yZlrIE0OlbE-60" value="[success]:" style="html=1;verticalAlign=bottom;endArrow=open;dashed=1;endSize=8;rounded=0;exitX=0;exitY=0.5;exitDx=0;exitDy=0;entryX=0.941;entryY=0.299;entryDx=0;entryDy=0;entryPerimeter=0;" edge="1" parent="1" source="ma4kMYxB2yZlrIE0OlbE-55" target="ma4kMYxB2yZlrIE0OlbE-28">
          <mxGeometry relative="1" as="geometry">
            <mxPoint x="610" y="440" as="sourcePoint" />
            <mxPoint x="530" y="440" as="targetPoint" />
          </mxGeometry>
        </mxCell>
        <mxCell id="ma4kMYxB2yZlrIE0OlbE-61" value="orderPlaceRequest(orderData)" style="html=1;verticalAlign=bottom;endArrow=block;rounded=0;entryX=0.032;entryY=0.613;entryDx=0;entryDy=0;entryPerimeter=0;" edge="1" parent="1">
          <mxGeometry width="80" relative="1" as="geometry">
            <mxPoint x="480" y="539" as="sourcePoint" />
            <mxPoint x="780.6399999999999" y="538.73" as="targetPoint" />
          </mxGeometry>
        </mxCell>
        <mxCell id="ma4kMYxB2yZlrIE0OlbE-13" value="" style="endArrow=none;dashed=1;html=1;rounded=0;entryX=0.5;entryY=1;entryDx=0;entryDy=0;" edge="1" parent="1">
          <mxGeometry width="50" height="50" relative="1" as="geometry">
            <mxPoint x="1300" y="1330" as="sourcePoint" />
            <mxPoint x="1299.9999999999995" y="1340" as="targetPoint" />
          </mxGeometry>
        </mxCell>
        <mxCell id="ma4kMYxB2yZlrIE0OlbE-15" value="" style="endArrow=none;dashed=1;html=1;rounded=0;entryX=0.5;entryY=1;entryDx=0;entryDy=0;" edge="1" parent="1">
          <mxGeometry width="50" height="50" relative="1" as="geometry">
            <mxPoint x="1300" y="1550" as="sourcePoint" />
            <mxPoint x="1299.9999999999995" y="1560" as="targetPoint" />
          </mxGeometry>
        </mxCell>
        <mxCell id="ma4kMYxB2yZlrIE0OlbE-64" value="orderPlaceQuery(orderData)" style="html=1;verticalAlign=bottom;endArrow=block;rounded=0;entryX=0;entryY=0.619;entryDx=0;entryDy=0;entryPerimeter=0;exitX=0.977;exitY=0.62;exitDx=0;exitDy=0;exitPerimeter=0;" edge="1" parent="1" target="ma4kMYxB2yZlrIE0OlbE-62">
          <mxGeometry width="80" relative="1" as="geometry">
            <mxPoint x="799.54" y="540.2" as="sourcePoint" />
            <mxPoint x="980" y="580" as="targetPoint" />
          </mxGeometry>
        </mxCell>
        <mxCell id="ma4kMYxB2yZlrIE0OlbE-65" value="[responseData]:" style="html=1;verticalAlign=bottom;endArrow=open;dashed=1;endSize=8;rounded=0;exitX=0;exitY=0.75;exitDx=0;exitDy=0;entryX=1;entryY=0.75;entryDx=0;entryDy=0;" edge="1" parent="1" source="ma4kMYxB2yZlrIE0OlbE-62">
          <mxGeometry relative="1" as="geometry">
            <mxPoint x="990" y="540" as="sourcePoint" />
            <mxPoint x="800" y="567.5" as="targetPoint" />
          </mxGeometry>
        </mxCell>
        <mxCell id="ma4kMYxB2yZlrIE0OlbE-67" value="[responseData]:" style="html=1;verticalAlign=bottom;endArrow=open;dashed=1;endSize=8;rounded=0;exitX=0;exitY=0.5;exitDx=0;exitDy=0;entryX=1;entryY=0.5;entryDx=0;entryDy=0;" edge="1" parent="1">
          <mxGeometry relative="1" as="geometry">
            <mxPoint x="780" y="570" as="sourcePoint" />
            <mxPoint x="480" y="570" as="targetPoint" />
          </mxGeometry>
        </mxCell>
        <mxCell id="ma4kMYxB2yZlrIE0OlbE-68" value="[orderDataDisplayedToUser]:" style="html=1;verticalAlign=bottom;endArrow=open;dashed=1;endSize=8;rounded=0;exitX=0;exitY=0.5;exitDx=0;exitDy=0;entryX=1;entryY=0.5;entryDx=0;entryDy=0;" edge="1" parent="1">
          <mxGeometry relative="1" as="geometry">
            <mxPoint x="460" y="570" as="sourcePoint" />
            <mxPoint x="180" y="570" as="targetPoint" />
          </mxGeometry>
        </mxCell>
        <mxCell id="ma4kMYxB2yZlrIE0OlbE-69" value="Push Notification Microservice" style="rounded=0;whiteSpace=wrap;html=1;" vertex="1" parent="1">
          <mxGeometry x="550" y="610" width="150" height="30" as="geometry" />
        </mxCell>
        <mxCell id="ma4kMYxB2yZlrIE0OlbE-70" value="" style="endArrow=none;dashed=1;html=1;rounded=0;entryX=0.5;entryY=1;entryDx=0;entryDy=0;startArrow=none;" edge="1" parent="1" source="ma4kMYxB2yZlrIE0OlbE-72" target="ma4kMYxB2yZlrIE0OlbE-69">
          <mxGeometry width="50" height="50" relative="1" as="geometry">
            <mxPoint x="625" y="990" as="sourcePoint" />
            <mxPoint x="635" y="390" as="targetPoint" />
          </mxGeometry>
        </mxCell>
        <mxCell id="ma4kMYxB2yZlrIE0OlbE-35" value="" style="endArrow=none;dashed=1;html=1;rounded=0;entryX=0.5;entryY=1;entryDx=0;entryDy=0;startArrow=none;" edge="1" parent="1" source="ma4kMYxB2yZlrIE0OlbE-37">
          <mxGeometry width="50" height="50" relative="1" as="geometry">
            <mxPoint x="790" y="1001.818115234375" as="sourcePoint" />
            <mxPoint x="790" y="100" as="targetPoint" />
          </mxGeometry>
        </mxCell>
        <mxCell id="ma4kMYxB2yZlrIE0OlbE-37" value="" style="rounded=0;whiteSpace=wrap;html=1;" vertex="1" parent="1">
          <mxGeometry x="780" y="160" width="20" height="100" as="geometry" />
        </mxCell>
        <mxCell id="ma4kMYxB2yZlrIE0OlbE-36" value="" style="endArrow=none;dashed=1;html=1;rounded=0;entryX=0.5;entryY=1;entryDx=0;entryDy=0;startArrow=none;" edge="1" parent="1" target="ma4kMYxB2yZlrIE0OlbE-37">
          <mxGeometry width="50" height="50" relative="1" as="geometry">
            <mxPoint x="790" y="410" as="sourcePoint" />
            <mxPoint x="790" y="120" as="targetPoint" />
          </mxGeometry>
        </mxCell>
        <mxCell id="ma4kMYxB2yZlrIE0OlbE-39" value="" style="endArrow=none;dashed=1;html=1;rounded=0;entryX=0.5;entryY=1;entryDx=0;entryDy=0;startArrow=none;" edge="1" parent="1">
          <mxGeometry width="50" height="50" relative="1" as="geometry">
            <mxPoint x="790" y="1670" as="sourcePoint" />
            <mxPoint x="790" y="620" as="targetPoint" />
          </mxGeometry>
        </mxCell>
        <mxCell id="ma4kMYxB2yZlrIE0OlbE-71" value="" style="rounded=0;whiteSpace=wrap;html=1;" vertex="1" parent="1">
          <mxGeometry x="780" y="410" width="20" height="360" as="geometry" />
        </mxCell>
        <mxCell id="ma4kMYxB2yZlrIE0OlbE-72" value="" style="rounded=0;whiteSpace=wrap;html=1;" vertex="1" parent="1">
          <mxGeometry x="615" y="660" width="20" height="110" as="geometry" />
        </mxCell>
        <mxCell id="ma4kMYxB2yZlrIE0OlbE-73" value="" style="endArrow=none;dashed=1;html=1;rounded=0;entryX=0.5;entryY=1;entryDx=0;entryDy=0;startArrow=none;" edge="1" parent="1" target="ma4kMYxB2yZlrIE0OlbE-72">
          <mxGeometry width="50" height="50" relative="1" as="geometry">
            <mxPoint x="625" y="1440" as="sourcePoint" />
            <mxPoint x="625" y="640" as="targetPoint" />
          </mxGeometry>
        </mxCell>
        <mxCell id="ma4kMYxB2yZlrIE0OlbE-76" value="publish&lt;br&gt;Order&lt;br&gt;Received&lt;br&gt;Message()" style="text;html=1;align=center;verticalAlign=middle;resizable=0;points=[];autosize=1;strokeColor=none;fillColor=none;" vertex="1" parent="1">
          <mxGeometry x="679.9986363636364" y="670" width="70" height="60" as="geometry" />
        </mxCell>
        <mxCell id="ma4kMYxB2yZlrIE0OlbE-77" value="" style="edgeStyle=orthogonalEdgeStyle;html=1;endArrow=none;elbow=vertical;startArrow=open;startFill=0;strokeColor=#545B64;rounded=0;" edge="1" parent="1">
          <mxGeometry width="100" relative="1" as="geometry">
            <mxPoint x="635" y="700" as="sourcePoint" />
            <mxPoint x="780" y="690.0000000000001" as="targetPoint" />
          </mxGeometry>
        </mxCell>
        <mxCell id="ma4kMYxB2yZlrIE0OlbE-78" value="" style="rounded=0;whiteSpace=wrap;html=1;" vertex="1" parent="1">
          <mxGeometry x="160" y="410" width="20" height="360" as="geometry" />
        </mxCell>
        <mxCell id="ma4kMYxB2yZlrIE0OlbE-93" value="" style="group" vertex="1" connectable="0" parent="1">
          <mxGeometry y="840" width="635" height="150" as="geometry" />
        </mxCell>
        <mxCell id="ma4kMYxB2yZlrIE0OlbE-20" value="" style="rounded=0;whiteSpace=wrap;html=1;" vertex="1" parent="ma4kMYxB2yZlrIE0OlbE-93">
          <mxGeometry x="160" width="20" height="150" as="geometry" />
        </mxCell>
        <mxCell id="ma4kMYxB2yZlrIE0OlbE-84" value="Customer Receives Estimated Time notification" style="shape=note;whiteSpace=wrap;html=1;backgroundOutline=1;darkOpacity=0.05;size=8;" vertex="1" parent="ma4kMYxB2yZlrIE0OlbE-93">
          <mxGeometry y="30" width="120" height="50" as="geometry" />
        </mxCell>
        <mxCell id="ma4kMYxB2yZlrIE0OlbE-32" value="" style="rounded=0;whiteSpace=wrap;html=1;" vertex="1" parent="ma4kMYxB2yZlrIE0OlbE-93">
          <mxGeometry x="615" width="20" height="150" as="geometry" />
        </mxCell>
        <mxCell id="ma4kMYxB2yZlrIE0OlbE-85" value="" style="endArrow=none;dashed=1;html=1;rounded=0;entryX=0.5;entryY=1;entryDx=0;entryDy=0;startArrow=none;" edge="1" parent="ma4kMYxB2yZlrIE0OlbE-93" target="ma4kMYxB2yZlrIE0OlbE-32">
          <mxGeometry width="50" height="50" relative="1" as="geometry">
            <mxPoint x="625" y="150" as="sourcePoint" />
            <mxPoint x="625" y="-70" as="targetPoint" />
          </mxGeometry>
        </mxCell>
        <mxCell id="ma4kMYxB2yZlrIE0OlbE-88" value="estimated&lt;br&gt;Time&lt;br&gt;Notification()" style="text;html=1;align=center;verticalAlign=middle;resizable=0;points=[];autosize=1;strokeColor=none;fillColor=none;" vertex="1" parent="ma4kMYxB2yZlrIE0OlbE-93">
          <mxGeometry x="510.00363636363636" y="20" width="80" height="50" as="geometry" />
        </mxCell>
        <mxCell id="ma4kMYxB2yZlrIE0OlbE-89" value="" style="edgeStyle=orthogonalEdgeStyle;html=1;endArrow=none;elbow=vertical;startArrow=open;startFill=0;strokeColor=#545B64;rounded=0;entryX=0;entryY=0.25;entryDx=0;entryDy=0;exitX=1;exitY=0.25;exitDx=0;exitDy=0;" edge="1" parent="ma4kMYxB2yZlrIE0OlbE-93" source="ma4kMYxB2yZlrIE0OlbE-90" target="ma4kMYxB2yZlrIE0OlbE-32">
          <mxGeometry width="100" relative="1" as="geometry">
            <mxPoint x="180" y="40" as="sourcePoint" />
            <mxPoint x="600" y="40" as="targetPoint" />
          </mxGeometry>
        </mxCell>
        <mxCell id="ma4kMYxB2yZlrIE0OlbE-90" value="" style="rounded=0;whiteSpace=wrap;html=1;" vertex="1" parent="ma4kMYxB2yZlrIE0OlbE-93">
          <mxGeometry x="460" width="20" height="150" as="geometry" />
        </mxCell>
        <mxCell id="ma4kMYxB2yZlrIE0OlbE-92" value="[notificationDisplayedToUser]:" style="html=1;verticalAlign=bottom;endArrow=open;dashed=1;endSize=8;rounded=0;exitX=0;exitY=0.5;exitDx=0;exitDy=0;entryX=1;entryY=0.5;entryDx=0;entryDy=0;" edge="1" parent="ma4kMYxB2yZlrIE0OlbE-93">
          <mxGeometry relative="1" as="geometry">
            <mxPoint x="460" y="40" as="sourcePoint" />
            <mxPoint x="180" y="40" as="targetPoint" />
          </mxGeometry>
        </mxCell>
        <mxCell id="ma4kMYxB2yZlrIE0OlbE-94" value="" style="rounded=0;whiteSpace=wrap;html=1;fillColor=none;" vertex="1" parent="1">
          <mxGeometry x="-30" y="790" width="800" height="250" as="geometry" />
        </mxCell>
        <mxCell id="ma4kMYxB2yZlrIE0OlbE-95" value="" style="group" vertex="1" connectable="0" parent="1">
          <mxGeometry x="-30" y="790" width="110" height="30" as="geometry" />
        </mxCell>
        <mxCell id="ma4kMYxB2yZlrIE0OlbE-96" value="" style="shape=card;whiteSpace=wrap;html=1;fillColor=none;rotation=-180;size=20;" vertex="1" parent="ma4kMYxB2yZlrIE0OlbE-95">
          <mxGeometry width="110" height="30" as="geometry" />
        </mxCell>
        <mxCell id="ma4kMYxB2yZlrIE0OlbE-97" value="Opt" style="text;html=1;strokeColor=none;fillColor=none;align=center;verticalAlign=middle;whiteSpace=wrap;rounded=0;" vertex="1" parent="ma4kMYxB2yZlrIE0OlbE-95">
          <mxGeometry x="20" width="60" height="30" as="geometry" />
        </mxCell>
        <mxCell id="ma4kMYxB2yZlrIE0OlbE-99" value="[Estimated time provided by Restaurant]" style="text;html=1;strokeColor=none;fillColor=none;align=center;verticalAlign=middle;whiteSpace=wrap;rounded=0;" vertex="1" parent="1">
          <mxGeometry x="205" y="790" width="220" height="30" as="geometry" />
        </mxCell>
        <mxCell id="ma4kMYxB2yZlrIE0OlbE-100" value="" style="group" vertex="1" connectable="0" parent="1">
          <mxGeometry y="1100" width="635" height="150" as="geometry" />
        </mxCell>
        <mxCell id="ma4kMYxB2yZlrIE0OlbE-101" value="" style="rounded=0;whiteSpace=wrap;html=1;" vertex="1" parent="ma4kMYxB2yZlrIE0OlbE-100">
          <mxGeometry x="160" width="20" height="150" as="geometry" />
        </mxCell>
        <mxCell id="ma4kMYxB2yZlrIE0OlbE-102" value="Customer Receives Order Ready Notification" style="shape=note;whiteSpace=wrap;html=1;backgroundOutline=1;darkOpacity=0.05;size=8;" vertex="1" parent="ma4kMYxB2yZlrIE0OlbE-100">
          <mxGeometry y="30" width="120" height="50" as="geometry" />
        </mxCell>
        <mxCell id="ma4kMYxB2yZlrIE0OlbE-103" value="" style="rounded=0;whiteSpace=wrap;html=1;" vertex="1" parent="ma4kMYxB2yZlrIE0OlbE-100">
          <mxGeometry x="615" width="20" height="150" as="geometry" />
        </mxCell>
        <mxCell id="ma4kMYxB2yZlrIE0OlbE-104" value="" style="endArrow=none;dashed=1;html=1;rounded=0;entryX=0.5;entryY=1;entryDx=0;entryDy=0;startArrow=none;" edge="1" parent="ma4kMYxB2yZlrIE0OlbE-100" target="ma4kMYxB2yZlrIE0OlbE-103">
          <mxGeometry width="50" height="50" relative="1" as="geometry">
            <mxPoint x="625" y="150" as="sourcePoint" />
            <mxPoint x="625" y="-70" as="targetPoint" />
          </mxGeometry>
        </mxCell>
        <mxCell id="ma4kMYxB2yZlrIE0OlbE-105" value="order&lt;br&gt;Ready&lt;br&gt;Notification()" style="text;html=1;align=center;verticalAlign=middle;resizable=0;points=[];autosize=1;strokeColor=none;fillColor=none;" vertex="1" parent="ma4kMYxB2yZlrIE0OlbE-100">
          <mxGeometry x="510.00363636363636" y="20" width="80" height="50" as="geometry" />
        </mxCell>
        <mxCell id="ma4kMYxB2yZlrIE0OlbE-106" value="" style="edgeStyle=orthogonalEdgeStyle;html=1;endArrow=none;elbow=vertical;startArrow=open;startFill=0;strokeColor=#545B64;rounded=0;entryX=0;entryY=0.25;entryDx=0;entryDy=0;exitX=1;exitY=0.25;exitDx=0;exitDy=0;" edge="1" parent="ma4kMYxB2yZlrIE0OlbE-100" source="ma4kMYxB2yZlrIE0OlbE-107" target="ma4kMYxB2yZlrIE0OlbE-103">
          <mxGeometry width="100" relative="1" as="geometry">
            <mxPoint x="180" y="40" as="sourcePoint" />
            <mxPoint x="600" y="40" as="targetPoint" />
          </mxGeometry>
        </mxCell>
        <mxCell id="ma4kMYxB2yZlrIE0OlbE-107" value="" style="rounded=0;whiteSpace=wrap;html=1;" vertex="1" parent="ma4kMYxB2yZlrIE0OlbE-100">
          <mxGeometry x="460" width="20" height="150" as="geometry" />
        </mxCell>
        <mxCell id="ma4kMYxB2yZlrIE0OlbE-108" value="[notificationDisplayedToUser]:" style="html=1;verticalAlign=bottom;endArrow=open;dashed=1;endSize=8;rounded=0;exitX=0;exitY=0.5;exitDx=0;exitDy=0;entryX=1;entryY=0.5;entryDx=0;entryDy=0;" edge="1" parent="ma4kMYxB2yZlrIE0OlbE-100">
          <mxGeometry relative="1" as="geometry">
            <mxPoint x="460" y="40" as="sourcePoint" />
            <mxPoint x="180" y="40" as="targetPoint" />
          </mxGeometry>
        </mxCell>
        <mxCell id="ma4kMYxB2yZlrIE0OlbE-119" value="Location Tracker&lt;br&gt;Service" style="rounded=0;whiteSpace=wrap;html=1;" vertex="1" parent="1">
          <mxGeometry x="550" y="1460" width="150" height="30" as="geometry" />
        </mxCell>
        <mxCell id="ma4kMYxB2yZlrIE0OlbE-120" value="" style="endArrow=none;dashed=1;html=1;rounded=0;entryX=0.5;entryY=1;entryDx=0;entryDy=0;startArrow=none;" edge="1" parent="1" target="ma4kMYxB2yZlrIE0OlbE-119">
          <mxGeometry width="50" height="50" relative="1" as="geometry">
            <mxPoint x="625" y="1510" as="sourcePoint" />
            <mxPoint x="410" y="1430" as="targetPoint" />
          </mxGeometry>
        </mxCell>
        <mxCell id="ma4kMYxB2yZlrIE0OlbE-122" value="" style="endArrow=none;dashed=1;html=1;rounded=0;entryX=0.5;entryY=1;entryDx=0;entryDy=0;startArrow=none;" edge="1" parent="1" source="ma4kMYxB2yZlrIE0OlbE-123">
          <mxGeometry width="50" height="50" relative="1" as="geometry">
            <mxPoint x="625" y="2041" as="sourcePoint" />
            <mxPoint x="625" y="1570" as="targetPoint" />
          </mxGeometry>
        </mxCell>
        <mxCell id="ma4kMYxB2yZlrIE0OlbE-110" value="" style="rounded=0;whiteSpace=wrap;html=1;" vertex="1" parent="1">
          <mxGeometry x="160" y="1280" width="20" height="150" as="geometry" />
        </mxCell>
        <mxCell id="ma4kMYxB2yZlrIE0OlbE-111" value="Customer Receives Order PickedUp&lt;br&gt;Notification" style="shape=note;whiteSpace=wrap;html=1;backgroundOutline=1;darkOpacity=0.05;size=8;" vertex="1" parent="1">
          <mxGeometry y="1310" width="120" height="50" as="geometry" />
        </mxCell>
        <mxCell id="ma4kMYxB2yZlrIE0OlbE-112" value="" style="rounded=0;whiteSpace=wrap;html=1;" vertex="1" parent="1">
          <mxGeometry x="615" y="1280" width="20" height="150" as="geometry" />
        </mxCell>
        <mxCell id="ma4kMYxB2yZlrIE0OlbE-113" value="" style="endArrow=none;dashed=1;html=1;rounded=0;entryX=0.5;entryY=1;entryDx=0;entryDy=0;startArrow=none;" edge="1" parent="1" target="ma4kMYxB2yZlrIE0OlbE-112">
          <mxGeometry width="50" height="50" relative="1" as="geometry">
            <mxPoint x="625" y="1430" as="sourcePoint" />
            <mxPoint x="625" y="1210" as="targetPoint" />
          </mxGeometry>
        </mxCell>
        <mxCell id="ma4kMYxB2yZlrIE0OlbE-114" value="order&lt;br&gt;PickedUp&lt;br&gt;Notification()" style="text;html=1;align=center;verticalAlign=middle;resizable=0;points=[];autosize=1;strokeColor=none;fillColor=none;" vertex="1" parent="1">
          <mxGeometry x="510.00363636363636" y="1300" width="80" height="50" as="geometry" />
        </mxCell>
        <mxCell id="ma4kMYxB2yZlrIE0OlbE-115" value="" style="edgeStyle=orthogonalEdgeStyle;html=1;endArrow=none;elbow=vertical;startArrow=open;startFill=0;strokeColor=#545B64;rounded=0;entryX=0;entryY=0.25;entryDx=0;entryDy=0;exitX=1;exitY=0.25;exitDx=0;exitDy=0;" edge="1" parent="1" source="ma4kMYxB2yZlrIE0OlbE-116" target="ma4kMYxB2yZlrIE0OlbE-112">
          <mxGeometry width="100" relative="1" as="geometry">
            <mxPoint x="180" y="1320" as="sourcePoint" />
            <mxPoint x="600" y="1320" as="targetPoint" />
          </mxGeometry>
        </mxCell>
        <mxCell id="ma4kMYxB2yZlrIE0OlbE-116" value="" style="rounded=0;whiteSpace=wrap;html=1;" vertex="1" parent="1">
          <mxGeometry x="460" y="1280" width="20" height="150" as="geometry" />
        </mxCell>
        <mxCell id="ma4kMYxB2yZlrIE0OlbE-117" value="[notificationDisplayedToUser]:" style="html=1;verticalAlign=bottom;endArrow=open;dashed=1;endSize=8;rounded=0;exitX=0;exitY=0.5;exitDx=0;exitDy=0;entryX=1;entryY=0.5;entryDx=0;entryDy=0;" edge="1" parent="1">
          <mxGeometry relative="1" as="geometry">
            <mxPoint x="460" y="1320" as="sourcePoint" />
            <mxPoint x="180" y="1320" as="targetPoint" />
          </mxGeometry>
        </mxCell>
        <mxCell id="ma4kMYxB2yZlrIE0OlbE-123" value="" style="rounded=0;whiteSpace=wrap;html=1;" vertex="1" parent="1">
          <mxGeometry x="615" y="1510" width="20" height="150" as="geometry" />
        </mxCell>
        <mxCell id="ma4kMYxB2yZlrIE0OlbE-126" value="" style="rounded=0;whiteSpace=wrap;html=1;" vertex="1" parent="1">
          <mxGeometry x="460" y="1510" width="20" height="150" as="geometry" />
        </mxCell>
        <mxCell id="ma4kMYxB2yZlrIE0OlbE-127" value="" style="rounded=0;whiteSpace=wrap;html=1;" vertex="1" parent="1">
          <mxGeometry x="160" y="1510" width="20" height="150" as="geometry" />
        </mxCell>
        <mxCell id="ma4kMYxB2yZlrIE0OlbE-129" value="Customer Tracks Location of Courier" style="shape=note;whiteSpace=wrap;html=1;backgroundOutline=1;darkOpacity=0.05;size=8;" vertex="1" parent="1">
          <mxGeometry y="1540" width="120" height="50" as="geometry" />
        </mxCell>
        <mxCell id="ma4kMYxB2yZlrIE0OlbE-130" value="" style="html=1;verticalAlign=bottom;endArrow=block;rounded=0;entryX=0;entryY=0.25;entryDx=0;entryDy=0;exitX=1;exitY=0.25;exitDx=0;exitDy=0;" edge="1" parent="1">
          <mxGeometry width="80" relative="1" as="geometry">
            <mxPoint x="180" y="1550" as="sourcePoint" />
            <mxPoint x="460" y="1550" as="targetPoint" />
          </mxGeometry>
        </mxCell>
        <mxCell id="ma4kMYxB2yZlrIE0OlbE-131" value="[dataDisplayedToUser]:" style="html=1;verticalAlign=bottom;endArrow=open;dashed=1;endSize=8;rounded=0;exitX=0;exitY=0.5;exitDx=0;exitDy=0;entryX=1;entryY=0.5;entryDx=0;entryDy=0;" edge="1" parent="1">
          <mxGeometry relative="1" as="geometry">
            <mxPoint x="460" y="1580" as="sourcePoint" />
            <mxPoint x="180" y="1580" as="targetPoint" />
          </mxGeometry>
        </mxCell>
        <mxCell id="ma4kMYxB2yZlrIE0OlbE-132" value="getData()" style="html=1;verticalAlign=bottom;endArrow=block;rounded=0;entryX=0;entryY=0.25;entryDx=0;entryDy=0;" edge="1" parent="1" target="ma4kMYxB2yZlrIE0OlbE-123">
          <mxGeometry width="80" relative="1" as="geometry">
            <mxPoint x="480" y="1548" as="sourcePoint" />
            <mxPoint x="610" y="1548" as="targetPoint" />
          </mxGeometry>
        </mxCell>
        <mxCell id="ma4kMYxB2yZlrIE0OlbE-133" value="[responseData]:" style="html=1;verticalAlign=bottom;endArrow=open;dashed=1;endSize=8;rounded=0;exitX=0.012;exitY=0.462;exitDx=0;exitDy=0;entryX=1.002;entryY=0.456;entryDx=0;entryDy=0;entryPerimeter=0;exitPerimeter=0;" edge="1" parent="1" source="ma4kMYxB2yZlrIE0OlbE-123" target="ma4kMYxB2yZlrIE0OlbE-126">
          <mxGeometry relative="1" as="geometry">
            <mxPoint x="480" y="1530" as="sourcePoint" />
            <mxPoint x="400" y="1530" as="targetPoint" />
          </mxGeometry>
        </mxCell>
        <mxCell id="ma4kMYxB2yZlrIE0OlbE-135" value="" style="group" vertex="1" connectable="0" parent="1">
          <mxGeometry x="1020" y="170" width="120" height="450" as="geometry" />
        </mxCell>
        <mxCell id="ma4kMYxB2yZlrIE0OlbE-5" value="Database" style="rounded=0;whiteSpace=wrap;html=1;" vertex="1" parent="ma4kMYxB2yZlrIE0OlbE-135">
          <mxGeometry width="120" height="30" as="geometry" />
        </mxCell>
        <mxCell id="ma4kMYxB2yZlrIE0OlbE-6" value="" style="endArrow=none;dashed=1;html=1;rounded=0;entryX=0.5;entryY=1;entryDx=0;entryDy=0;startArrow=none;" edge="1" parent="ma4kMYxB2yZlrIE0OlbE-135" source="ma4kMYxB2yZlrIE0OlbE-7" target="ma4kMYxB2yZlrIE0OlbE-5">
          <mxGeometry width="50" height="50" relative="1" as="geometry">
            <mxPoint x="10" y="881.818115234375" as="sourcePoint" />
            <mxPoint x="-180" y="50" as="targetPoint" />
          </mxGeometry>
        </mxCell>
        <mxCell id="ma4kMYxB2yZlrIE0OlbE-7" value="" style="rounded=0;whiteSpace=wrap;html=1;" vertex="1" parent="ma4kMYxB2yZlrIE0OlbE-135">
          <mxGeometry x="50" y="40" width="20" height="40" as="geometry" />
        </mxCell>
        <mxCell id="ma4kMYxB2yZlrIE0OlbE-12" value="" style="endArrow=none;dashed=1;html=1;rounded=0;entryX=0.5;entryY=1;entryDx=0;entryDy=0;startArrow=none;" edge="1" parent="ma4kMYxB2yZlrIE0OlbE-135" source="ma4kMYxB2yZlrIE0OlbE-62">
          <mxGeometry width="50" height="50" relative="1" as="geometry">
            <mxPoint x="60" y="1460" as="sourcePoint" />
            <mxPoint x="60" y="80" as="targetPoint" />
          </mxGeometry>
        </mxCell>
        <mxCell id="ma4kMYxB2yZlrIE0OlbE-62" value="" style="rounded=0;whiteSpace=wrap;html=1;" vertex="1" parent="ma4kMYxB2yZlrIE0OlbE-135">
          <mxGeometry x="50" y="240" width="20" height="210" as="geometry" />
        </mxCell>
      </root>
    </mxGraphModel>
  </diagram>
</mxfile>
